<svg xmlns="http://www.w3.org/2000/svg" viewBox="0 0 160 48" width="160" height="48">
  <rect width="160" height="48" rx="6" fill="#005BAA"/>
  <!-- Shield/Gear emblem -->
  <g transform="translate(8, 6)">
    <circle cx="18" cy="18" r="16" fill="#FFFFFF" opacity="0.15"/>
    <circle cx="18" cy="18" r="13" fill="#FFFFFF"/>
    <!-- Gear teeth -->
    <path d="M18 7 L20 7 L20 10 L18 10 Z" fill="#005BAA"/>
    <path d="M18 26 L20 26 L20 29 L18 29 Z" fill="#005BAA"/>
    <path d="M7 18 L7 20 L10 20 L10 18 Z" fill="#005BAA"/>
    <path d="M26 18 L26 20 L29 20 L29 18 Z" fill="#005BAA"/>
    <path d="M10 10 L12 12 L10 14 L8 12 Z" fill="#005BAA"/>
    <path d="M24 24 L26 26 L24 28 L22 26 Z" fill="#005BAA"/>
    <path d="M24 10 L26 12 L24 14 L22 12 Z" fill="#005BAA"/>
    <path d="M10 24 L12 26 L10 28 L8 26 Z" fill="#005BAA"/>
    <!-- Inner circle -->
    <circle cx="18" cy="18" r="9" fill="#005BAA"/>
    <!-- Checkmark -->
    <path d="M13 18 L16.5 21.5 L23 15" stroke="#FFFFFF" stroke-width="2.5" stroke-linecap="round" stroke-linejoin="round" fill="none"/>
  </g>
  <!-- Text: ĐÃ THÔNG BÁO BỘ CÔNG THƯƠNG -->
  <text x="48" y="20" fill="#FFFFFF" font-family="system-ui, -apple-system, sans-serif" font-size="11" font-weight="800" letter-spacing="0.5">ĐÃ THÔNG BÁO</text>
  <text x="48" y="34" fill="#66C2FF" font-family="system-ui, -apple-system, sans-serif" font-size="10" font-weight="900" letter-spacing="0.5">BỘ CÔNG THƯƠNG</text>
</svg>
